<svg width="64" height="64" viewBox="0 0 64 64" fill="none" xmlns="http://www.w3.org/2000/svg">
<path d="M49.2938 29.4062L45.3525 31.6576L43.4007 39.7267L38.5762 42.4878V46.5183L45.9357 42.3888L49.2938 29.4062Z" fill="black"/>
<path d="M31.9834 50.2234L36.4681 47.7048V40.8942L40.9202 38.3284L42.0923 33.5747L36.4681 36.7828V33.9889L50.2094 26.0516L51.5068 21.0508L33.0156 31.6557V45.6914L31.9834 46.2802V50.2234Z" fill="black"/>
<path d="M31.9836 50.2234L27.4988 47.7048V40.8942L23.0467 38.3284L21.8747 33.5747L27.4988 36.7828V33.9891L13.7575 26.0516L12.46 21.0508L30.9514 31.6557V45.6914L31.9836 46.2802V50.2234Z" fill="black"/>
<path d="M14.6733 29.4062L18.6147 31.6576L20.5665 39.7267L25.391 42.4878V46.5183L18.0314 42.3888L14.6733 29.4062Z" fill="black"/>
</svg>
